<?xml version="1.0" standalone="no"?>
<!DOCTYPE svg PUBLIC "-//W3C//DTD SVG 20010904//EN"
 "http://www.w3.org/TR/2001/REC-SVG-20010904/DTD/svg10.dtd">
<svg version="1.0" xmlns="http://www.w3.org/2000/svg"
 width="9950.000000pt" height="9950.000000pt" viewBox="0 0 9950.000000 9950.000000"
 preserveAspectRatio="xMidYMid meet">

<g transform="translate(0.000000,9950.000000) scale(0.100000,-0.100000)"
fill="#000000" stroke="none">
<path d="M63386 63325 c73 -103 170 -304 235 -485 21 -58 38 -100 38 -93 2 41
-116 324 -190 455 -27 48 -49 90 -49 92 0 3 120 -88 268 -201 313 -242 1975
-1524 2972 -2293 1237 -954 2684 -2070 3585 -2765 484 -373 1251 -965 1705
-1315 454 -350 1298 -1001 1875 -1446 960 -741 1100 -848 1070 -817 -10 11
-79 64 -1200 928 -363 280 -736 568 -830 640 -93 72 -543 419 -1000 771 -1363
1051 -2302 1775 -3590 2769 -1515 1169 -2748 2120 -3890 3000 -484 373 -911
703 -950 734 -54 43 -65 49 -49 26z"/>
<path d="M38649 63329 c-406 -59 -760 -313 -941 -674 -47 -92 -85 -199 -111
-310 -20 -88 -21 -115 -24 -1064 l-4 -974 -44 98 c-192 427 -538 780 -969 990
-633 309 -1394 260 -1984 -128 -313 -205 -574 -505 -728 -834 -262 -558 -256
-1203 16 -1759 106 -215 231 -384 416 -564 230 -223 490 -379 786 -471 59 -19
108 -36 108 -39 0 -3 -28 -15 -63 -28 -87 -31 -332 -152 -445 -219 -502 -299
-852 -730 -966 -1188 -170 -682 155 -1365 874 -1838 133 -87 434 -245 511
-268 21 -7 39 -15 39 -19 0 -4 -17 -12 -37 -18 -64 -19 -332 -155 -448 -227
-532 -328 -868 -772 -961 -1270 -26 -137 -26 -373 0 -510 87 -469 401 -904
881 -1220 l86 -57 -88 -60 c-125 -85 -215 -159 -315 -261 -796 -800 -778
-2105 38 -2888 166 -158 321 -265 527 -364 292 -139 546 -196 877 -197 456 0
856 134 1223 410 259 195 506 505 624 785 l38 89 6 -964 c3 -691 8 -980 17
-1025 103 -527 471 -905 992 -1019 83 -18 413 -19 11555 -19 11055 0 11473 1
11555 18 257 55 457 162 638 340 179 177 283 369 350 642 15 65 17 421 19
5323 2 2888 5 5252 8 5252 3 0 33 -22 68 -48 263 -205 545 -339 897 -425 175
-43 292 -57 487 -57 446 0 790 124 1059 382 358 343 545 832 626 1633 20 203
17 885 -5 1103 -73 716 -254 1206 -565 1533 -237 249 -525 386 -902 430 -126
14 -439 6 -550 -15 -387 -72 -724 -217 -1017 -437 l-103 -78 0 677 c0 733 -3
788 -56 960 -61 200 -157 357 -313 513 -198 199 -424 314 -691 355 -82 12
-1649 14 -11515 13 -6281 -1 -11445 -5 -11476 -10z m23287 -3625 c-4 -9 -22
-71 -41 -138 -157 -545 -137 -1154 57 -1680 138 -376 377 -739 652 -991 l81
-75 -11822 0 -11822 0 -143 143 c-79 79 -191 179 -250 222 -492 368 -1116 587
-1828 643 l-95 7 46 27 c25 15 87 59 139 99 391 303 653 721 755 1209 22 104
28 161 32 338 l6 212 12119 0 c11240 0 12120 -1 12114 -16z m-19216 -9624 l0
-500 -1635 0 -1635 0 0 500 0 500 1635 0 1635 0 0 -500z m4580 0 l0 -500
-1635 0 -1635 0 0 500 0 500 1635 0 1635 0 0 -500z m4580 0 l0 -500 -1635 0
-1635 0 0 500 0 500 1635 0 1635 0 0 -500z m4580 0 l0 -500 -1635 0 -1635 0 0
500 0 500 1635 0 1635 0 0 -500z m-18890 -27 l-1 -328 -23 55 c-61 146 -154
307 -256 440 -34 45 -60 82 -58 84 1 1 57 13 123 25 66 13 138 29 160 36 22 7
43 13 48 14 4 1 7 -146 7 -326z m14410 -1778 l0 -505 -6262 2 -6263 3 -3 503
-2 502 6265 0 6265 0 0 -505z"/>
<path d="M63660 62726 c0 -3 11 -51 25 -108 24 -100 51 -273 58 -373 l3 -50 2
55 c1 30 -5 102 -13 159 -15 103 -63 321 -71 321 -2 0 -4 -2 -4 -4z"/>
<path d="M63755 61760 c0 -234 1 -329 2 -212 2 116 2 308 0 425 -1 116 -2 21
-2 -213z"/>
<path d="M63755 51335 c0 -2728 1 -3843 2 -2477 2 1366 2 3598 0 4960 -1 1362
-2 245 -2 -2483z"/>
<path d="M74893 53785 c0 -22 2 -30 4 -17 2 12 2 30 0 40 -3 9 -5 -1 -4 -23z"/>
<path d="M74893 53600 c0 -30 2 -43 4 -27 2 15 2 39 0 55 -2 15 -4 2 -4 -28z"/>
<path d="M74882 53420 c0 -14 2 -19 5 -12 2 6 2 18 0 25 -3 6 -5 1 -5 -13z"/>
<path d="M74883 53300 c0 -25 2 -35 4 -22 2 12 2 32 0 45 -2 12 -4 2 -4 -23z"/>
<path d="M74872 53080 c0 -19 2 -27 5 -17 2 9 2 25 0 35 -3 9 -5 1 -5 -18z"/>
<path d="M74862 52895 c0 -16 2 -22 5 -12 2 9 2 23 0 30 -3 6 -5 -1 -5 -18z"/>
<path d="M74852 52735 c0 -16 2 -22 5 -12 2 9 2 23 0 30 -3 6 -5 -1 -5 -18z"/>
<path d="M74842 52595 c0 -16 2 -22 5 -12 2 9 2 23 0 30 -3 6 -5 -1 -5 -18z"/>
<path d="M74832 52445 c0 -16 2 -22 5 -12 2 9 2 23 0 30 -3 6 -5 -1 -5 -18z"/>
<path d="M74822 52320 c0 -14 2 -19 5 -12 2 6 2 18 0 25 -3 6 -5 1 -5 -13z"/>
<path d="M74811 52204 c0 -11 3 -14 6 -6 3 7 2 16 -1 19 -3 4 -6 -2 -5 -13z"/>
<path d="M74801 52084 c0 -11 3 -14 6 -6 3 7 2 16 -1 19 -3 4 -6 -2 -5 -13z"/>
<path d="M74791 51934 c0 -11 3 -14 6 -6 3 7 2 16 -1 19 -3 4 -6 -2 -5 -13z"/>
<path d="M74781 51874 c0 -11 3 -14 6 -6 3 7 2 16 -1 19 -3 4 -6 -2 -5 -13z"/>
<path d="M74771 51734 c0 -11 3 -14 6 -6 3 7 2 16 -1 19 -3 4 -6 -2 -5 -13z"/>
<path d="M74761 51634 c0 -11 3 -14 6 -6 3 7 2 16 -1 19 -3 4 -6 -2 -5 -13z"/>
<path d="M74751 51544 c0 -11 3 -14 6 -6 3 7 2 16 -1 19 -3 4 -6 -2 -5 -13z"/>
<path d="M74741 51464 c0 -11 3 -14 6 -6 3 7 2 16 -1 19 -3 4 -6 -2 -5 -13z"/>
<path d="M74731 51374 c0 -11 3 -14 6 -6 3 7 2 16 -1 19 -3 4 -6 -2 -5 -13z"/>
<path d="M74721 51294 c0 -11 3 -14 6 -6 3 7 2 16 -1 19 -3 4 -6 -2 -5 -13z"/>
<path d="M74712 51210 c0 -14 2 -19 5 -12 2 6 2 18 0 25 -3 6 -5 1 -5 -13z"/>
<path d="M74701 51134 c0 -11 3 -14 6 -6 3 7 2 16 -1 19 -3 4 -6 -2 -5 -13z"/>
<path d="M74691 51054 c0 -11 3 -14 6 -6 3 7 2 16 -1 19 -3 4 -6 -2 -5 -13z"/>
<path d="M74681 50984 c0 -11 3 -14 6 -6 3 7 2 16 -1 19 -3 4 -6 -2 -5 -13z"/>
<path d="M74671 50874 c0 -11 3 -14 6 -6 3 7 2 16 -1 19 -3 4 -6 -2 -5 -13z"/>
<path d="M74661 50804 c0 -11 3 -14 6 -6 3 7 2 16 -1 19 -3 4 -6 -2 -5 -13z"/>
<path d="M74631 50604 c0 -11 3 -14 6 -6 3 7 2 16 -1 19 -3 4 -6 -2 -5 -13z"/>
<path d="M74621 50534 c0 -11 3 -14 6 -6 3 7 2 16 -1 19 -3 4 -6 -2 -5 -13z"/>
<path d="M74611 50474 c0 -11 3 -14 6 -6 3 7 2 16 -1 19 -3 4 -6 -2 -5 -13z"/>
<path d="M74581 50284 c0 -11 3 -14 6 -6 3 7 2 16 -1 19 -3 4 -6 -2 -5 -13z"/>
<path d="M74522 49930 c0 -14 2 -19 5 -12 2 6 2 18 0 25 -3 6 -5 1 -5 -13z"/>
<path d="M74501 49804 c0 -11 3 -14 6 -6 3 7 2 16 -1 19 -3 4 -6 -2 -5 -13z"/>
<path d="M74442 49490 c0 -14 2 -19 5 -12 2 6 2 18 0 25 -3 6 -5 1 -5 -13z"/>
<path d="M74432 49440 c0 -14 2 -19 5 -12 2 6 2 18 0 25 -3 6 -5 1 -5 -13z"/>
<path d="M74422 49390 c0 -14 2 -19 5 -12 2 6 2 18 0 25 -3 6 -5 1 -5 -13z"/>
<path d="M74321 48904 c0 -11 3 -14 6 -6 3 7 2 16 -1 19 -3 4 -6 -2 -5 -13z"/>
<path d="M74312 48860 c0 -14 2 -19 5 -12 2 6 2 18 0 25 -3 6 -5 1 -5 -13z"/>
<path d="M74301 48814 c0 -11 3 -14 6 -6 3 7 2 16 -1 19 -3 4 -6 -2 -5 -13z"/>
<path d="M74292 48770 c0 -14 2 -19 5 -12 2 6 2 18 0 25 -3 6 -5 1 -5 -13z"/>
<path d="M74281 48724 c0 -11 3 -14 6 -6 3 7 2 16 -1 19 -3 4 -6 -2 -5 -13z"/>
<path d="M74271 48684 c0 -11 3 -14 6 -6 3 7 2 16 -1 19 -3 4 -6 -2 -5 -13z"/>
<path d="M74231 48504 c0 -11 3 -14 6 -6 3 7 2 16 -1 19 -3 4 -6 -2 -5 -13z"/>
<path d="M74221 48464 c0 -11 3 -14 6 -6 3 7 2 16 -1 19 -3 4 -6 -2 -5 -13z"/>
<path d="M74202 48388 c-7 -28 -11 -53 -8 -55 2 -2 9 19 16 47 7 28 10 53 8
55 -3 3 -10 -18 -16 -47z"/>
<path d="M74181 48294 c0 -11 3 -14 6 -6 3 7 2 16 -1 19 -3 4 -6 -2 -5 -13z"/>
<path d="M74171 48254 c0 -11 3 -14 6 -6 3 7 2 16 -1 19 -3 4 -6 -2 -5 -13z"/>
<path d="M74081 47904 c0 -11 3 -14 6 -6 3 7 2 16 -1 19 -3 4 -6 -2 -5 -13z"/>
<path d="M74071 47864 c0 -11 3 -14 6 -6 3 7 2 16 -1 19 -3 4 -6 -2 -5 -13z"/>
<path d="M74051 47794 c-7 -25 -10 -48 -8 -51 3 -2 10 17 16 43 7 25 10 48 8
51 -3 2 -10 -17 -16 -43z"/>
<path d="M73991 47564 c0 -11 3 -14 6 -6 3 7 2 16 -1 19 -3 4 -6 -2 -5 -13z"/>
<path d="M73971 47494 c0 -11 3 -14 6 -6 3 7 2 16 -1 19 -3 4 -6 -2 -5 -13z"/>
<path d="M73951 47424 c0 -11 3 -14 6 -6 3 7 2 16 -1 19 -3 4 -6 -2 -5 -13z"/>
<path d="M73931 47354 c0 -11 3 -14 6 -6 3 7 2 16 -1 19 -3 4 -6 -2 -5 -13z"/>
<path d="M73836 47034 c-4 -14 -5 -28 -3 -31 3 -2 8 8 11 23 4 14 5 28 3 31
-3 2 -8 -8 -11 -23z"/>
<path d="M73811 46944 c0 -11 3 -14 6 -6 3 7 2 16 -1 19 -3 4 -6 -2 -5 -13z"/>
<path d="M73776 46834 c-4 -14 -5 -28 -3 -31 3 -2 8 8 11 23 4 14 5 28 3 31
-3 2 -8 -8 -11 -23z"/>
<path d="M63742 46314 c-1 -28 -7 -88 -13 -133 -6 -45 -9 -84 -6 -87 8 -8 29
188 24 231 -3 37 -4 36 -5 -11z"/>
<path d="M63711 46065 c0 -11 -12 -67 -26 -124 -14 -57 -24 -106 -21 -108 7
-7 57 217 53 235 -4 13 -5 13 -6 -3z"/>
<path d="M73516 46045 c-9 -26 -7 -32 5 -12 6 10 9 21 6 23 -2 3 -7 -2 -11
-11z"/>
<path d="M73456 45875 c-9 -26 -7 -32 5 -12 6 10 9 21 6 23 -2 3 -7 -2 -11
-11z"/>
<path d="M63615 45707 c-49 -137 -49 -138 -32 -107 19 33 78 201 75 211 -2 5
-21 -42 -43 -104z"/>
<path d="M63498 45437 c-190 -374 -486 -699 -836 -916 -88 -55 -291 -158 -365
-186 -26 -10 -45 -20 -43 -22 8 -8 196 76 301 134 351 194 673 503 870 836 56
92 149 277 143 282 -2 2 -33 -56 -70 -128z"/>
<path d="M73216 45225 c-9 -26 -7 -32 5 -12 6 10 9 21 6 23 -2 3 -7 -2 -11
-11z"/>
<path d="M73146 45045 c-9 -26 -7 -32 5 -12 6 10 9 21 6 23 -2 3 -7 -2 -11
-11z"/>
<path d="M73126 44995 c-9 -26 -7 -32 5 -12 6 10 9 21 6 23 -2 3 -7 -2 -11
-11z"/>
<path d="M73106 44945 c-9 -26 -7 -32 5 -12 6 10 9 21 6 23 -2 3 -7 -2 -11
-11z"/>
<path d="M73086 44895 c-9 -26 -7 -32 5 -12 6 10 9 21 6 23 -2 3 -7 -2 -11
-11z"/>
<path d="M72946 44555 c-9 -26 -7 -32 5 -12 6 10 9 21 6 23 -2 3 -7 -2 -11
-11z"/>
<path d="M72926 44503 c-6 -14 -5 -15 5 -6 7 7 10 15 7 18 -3 3 -9 -2 -12 -12z"/>
<path d="M37630 44480 c-10 -6 -11 -12 -5 -19 6 -5 436 -362 956 -793 1450
-1200 3058 -2533 3414 -2828 362 -300 1979 -1640 2564 -2125 213 -176 933
-773 1601 -1327 1491 -1235 3299 -2733 3714 -3077 170 -141 429 -355 575 -477
146 -121 768 -636 1381 -1144 613 -508 1214 -1006 1335 -1106 452 -375 910
-754 1543 -1279 380 -315 661 -541 675 -542 l22 -2 -22 7 c-12 4 -185 142
-384 307 -199 165 -511 424 -694 575 -183 151 -667 552 -1076 892 -974 807
-4817 3991 -7879 6529 -1339 1109 -2754 2282 -3145 2606 -390 324 -870 721
-1066 883 -2845 2356 -3506 2906 -3498 2914 5 5 57 -16 126 -52 111 -57 314
-143 337 -142 6 1 -43 22 -109 48 -66 26 -169 74 -229 105 -120 62 -115 61
-136 47z"/>
<path d="M72892 44425 c-17 -37 -14 -45 4 -12 9 16 14 31 11 33 -2 2 -9 -7
-15 -21z"/>
<path d="M72862 44355 c-17 -37 -14 -45 4 -12 9 16 14 31 11 33 -2 2 -9 -7
-15 -21z"/>
<path d="M62160 44285 c-36 -13 -60 -24 -54 -24 13 -1 134 39 134 45 0 7 -12
4 -80 -21z"/>
<path d="M38150 44265 c19 -7 42 -13 50 -13 8 0 -1 6 -20 13 -19 7 -42 13 -50
13 -8 0 1 -6 20 -13z"/>
<path d="M62055 44254 c-6 -2 -58 -15 -115 -28 -58 -14 -96 -25 -86 -25 23 -1
236 49 236 55 0 5 -21 4 -35 -2z"/>
<path d="M38235 44240 c11 -5 29 -8 40 -8 16 0 15 2 -5 8 -34 11 -60 11 -35 0z"/>
<path d="M38308 44223 c7 -3 16 -2 19 1 4 3 -2 6 -13 5 -11 0 -14 -3 -6 -6z"/>
<path d="M38348 44213 c6 -2 18 -2 25 0 6 3 1 5 -13 5 -14 0 -19 -2 -12 -5z"/>
<path d="M38415 44200 c17 -4 44 -8 60 -8 25 0 24 2 -10 9 -51 10 -92 10 -50
-1z"/>
<path d="M61760 44194 c-8 -2 -55 -8 -105 -14 l-90 -9 95 5 c97 5 207 22 145
22 -16 0 -37 -2 -45 -4z"/>
<path d="M38528 44183 c12 -2 30 -2 40 0 9 3 -1 5 -23 4 -22 0 -30 -2 -17 -4z"/>
<path d="M38618 44173 c17 -2 47 -2 65 0 17 2 3 4 -33 4 -36 0 -50 -2 -32 -4z"/>
<path d="M44433 44163 c3139 -2 8275 -2 11415 0 3139 1 570 2 -5708 2 -6278 0
-8847 -1 -5707 -2z"/>
<path d="M72672 43925 c-17 -37 -14 -45 4 -12 9 16 14 31 11 33 -2 2 -9 -7
-15 -21z"/>
<path d="M72605 43779 c-4 -6 -5 -12 -2 -15 2 -3 7 2 10 11 7 17 1 20 -8 4z"/>
<path d="M72546 43655 c-9 -26 -7 -32 5 -12 6 10 9 21 6 23 -2 3 -7 -2 -11
-11z"/>
<path d="M72486 43523 c-6 -14 -5 -15 5 -6 7 7 10 15 7 18 -3 3 -9 -2 -12 -12z"/>
<path d="M72456 43465 c-9 -26 -7 -32 5 -12 6 10 9 21 6 23 -2 3 -7 -2 -11
-11z"/>
<path d="M72361 43263 c-10 -26 -10 -27 4 -9 8 11 15 23 15 28 0 15 -7 8 -19
-19z"/>
<path d="M72257 43055 c-31 -63 -55 -115 -52 -115 7 0 117 221 113 226 -2 2
-29 -48 -61 -111z"/>
<path d="M72157 42855 c-9 -19 -15 -35 -12 -35 7 0 37 61 33 66 -3 2 -12 -12
-21 -31z"/>
<path d="M72040 42630 c-6 -11 -8 -20 -6 -20 3 0 10 9 16 20 6 11 8 20 6 20
-3 0 -10 -9 -16 -20z"/>
<path d="M72016 42583 c-6 -14 -5 -15 5 -6 7 7 10 15 7 18 -3 3 -9 -2 -12 -12z"/>
<path d="M71940 42440 c-6 -11 -8 -20 -6 -20 3 0 10 9 16 20 6 11 8 20 6 20
-3 0 -10 -9 -16 -20z"/>
<path d="M71747 42085 c-9 -19 -15 -35 -12 -35 7 0 37 61 33 66 -3 2 -12 -12
-21 -31z"/>
<path d="M71655 41920 c-9 -16 -13 -30 -11 -30 3 0 12 14 21 30 9 17 13 30 11
30 -3 0 -12 -13 -21 -30z"/>
<path d="M71465 41590 c-9 -16 -13 -30 -11 -30 3 0 12 14 21 30 9 17 13 30 11
30 -3 0 -12 -13 -21 -30z"/>
<path d="M71365 41420 c-9 -16 -13 -30 -11 -30 3 0 12 14 21 30 9 17 13 30 11
30 -3 0 -12 -13 -21 -30z"/>
<path d="M71326 41353 c-6 -14 -5 -15 5 -6 7 7 10 15 7 18 -3 3 -9 -2 -12 -12z"/>
<path d="M71286 41288 l-18 -33 21 25 c18 22 26 40 18 40 -1 0 -11 -15 -21
-32z"/>
<path d="M70970 40780 c-6 -11 -8 -20 -6 -20 3 0 10 9 16 20 6 11 8 20 6 20
-3 0 -10 -9 -16 -20z"/>
<path d="M70895 40664 c-9 -15 -12 -23 -6 -20 11 7 35 46 28 46 -3 0 -12 -12
-22 -26z"/>
<path d="M70555 40148 c-16 -24 -22 -38 -14 -31 15 12 53 73 46 73 -2 0 -17
-19 -32 -42z"/>
<path d="M70470 40025 c-17 -25 -29 -45 -26 -45 3 0 19 20 36 45 17 25 29 45
26 45 -3 0 -19 -20 -36 -45z"/>
<path d="M70419 39953 c-13 -16 -12 -17 4 -4 16 13 21 21 13 21 -2 0 -10 -8
-17 -17z"/>
<path d="M70090 39490 c-12 -16 -19 -30 -16 -30 2 0 14 14 26 30 12 17 19 30
16 30 -2 0 -14 -13 -26 -30z"/>
<path d="M70049 39433 c-13 -16 -12 -17 4 -4 16 13 21 21 13 21 -2 0 -10 -8
-17 -17z"/>
<path d="M70005 39374 c-9 -15 -12 -23 -6 -20 11 7 35 46 28 46 -3 0 -12 -12
-22 -26z"/>
<path d="M69969 39323 c-13 -16 -12 -17 4 -4 16 13 21 21 13 21 -2 0 -10 -8
-17 -17z"/>
<path d="M69939 39283 c-13 -16 -12 -17 4 -4 9 7 17 15 17 17 0 8 -8 3 -21
-13z"/>
<path d="M69849 39163 c-13 -16 -12 -17 4 -4 16 13 21 21 13 21 -2 0 -10 -8
-17 -17z"/>
<path d="M69819 39123 c-13 -16 -12 -17 4 -4 16 13 21 21 13 21 -2 0 -10 -8
-17 -17z"/>
<path d="M69789 39083 c-13 -16 -12 -17 4 -4 9 7 17 15 17 17 0 8 -8 3 -21
-13z"/>
<path d="M69758 39043 c-18 -21 -31 -43 -25 -43 2 0 13 14 25 30 25 33 24 41
0 13z"/>
<path d="M69654 38908 l-19 -23 23 19 c21 18 27 26 19 26 -2 0 -12 -10 -23
-22z"/>
<path d="M69619 38863 c-13 -16 -12 -17 4 -4 9 7 17 15 17 17 0 8 -8 3 -21
-13z"/>
<path d="M69584 38818 l-19 -23 23 19 c12 11 22 21 22 23 0 8 -8 2 -26 -19z"/>
<path d="M69429 38623 c-13 -16 -12 -17 4 -4 9 7 17 15 17 17 0 8 -8 3 -21
-13z"/>
<path d="M69389 38573 c-13 -16 -12 -17 4 -4 16 13 21 21 13 21 -2 0 -10 -8
-17 -17z"/>
<path d="M69354 38528 l-19 -23 23 19 c12 11 22 21 22 23 0 8 -8 2 -26 -19z"/>
<path d="M69309 38473 c-13 -16 -12 -17 4 -4 16 13 21 21 13 21 -2 0 -10 -8
-17 -17z"/>
<path d="M69269 38423 c-13 -16 -12 -17 4 -4 16 13 21 21 13 21 -2 0 -10 -8
-17 -17z"/>
<path d="M69224 38368 l-19 -23 23 19 c12 11 22 21 22 23 0 8 -8 2 -26 -19z"/>
<path d="M69179 38313 c-13 -16 -12 -17 4 -4 9 7 17 15 17 17 0 8 -8 3 -21
-13z"/>
<path d="M69134 38258 l-19 -23 23 19 c21 18 27 26 19 26 -2 0 -12 -10 -23
-22z"/>
<path d="M69089 38203 l-24 -28 28 24 c25 23 32 31 24 31 -2 0 -14 -12 -28
-27z"/>
<path d="M69044 38148 l-19 -23 23 19 c12 11 22 21 22 23 0 8 -8 2 -26 -19z"/>
<path d="M68989 38083 l-24 -28 28 24 c25 23 32 31 24 31 -2 0 -14 -12 -28
-27z"/>
<path d="M68934 38018 l-19 -23 23 19 c21 18 27 26 19 26 -2 0 -12 -10 -23
-22z"/>
<path d="M68876 37951 l-30 -36 34 32 c19 18 32 34 29 36 -2 2 -17 -12 -33
-32z"/>
<path d="M68819 37883 l-24 -28 28 24 c25 23 32 31 24 31 -2 0 -14 -12 -28
-27z"/>
<path d="M68754 37808 l-19 -23 23 19 c21 18 27 26 19 26 -2 0 -12 -10 -23
-22z"/>
<path d="M68694 37738 l-19 -23 23 19 c21 18 27 26 19 26 -2 0 -12 -10 -23
-22z"/>
<path d="M68636 37672 l-19 -27 24 22 c12 12 21 24 18 27 -2 2 -13 -8 -23 -22z"/>
<path d="M68544 37568 l-29 -33 33 29 c17 17 32 31 32 33 0 8 -8 1 -36 -29z"/>
<path d="M68419 37433 c-13 -16 -12 -17 4 -4 9 7 17 15 17 17 0 8 -8 3 -21
-13z"/>
<path d="M68389 37393 c-13 -16 -12 -17 4 -4 9 7 17 15 17 17 0 8 -8 3 -21
-13z"/>
<path d="M68079 37063 c-13 -16 -12 -17 4 -4 16 13 21 21 13 21 -2 0 -10 -8
-17 -17z"/>
<path d="M67894 36868 l-19 -23 23 19 c21 18 27 26 19 26 -2 0 -12 -10 -23
-22z"/>
<path d="M67159 36133 c-13 -16 -12 -17 4 -4 9 7 17 15 17 17 0 8 -8 3 -21
-13z"/>
<path d="M66959 35943 c-13 -16 -12 -17 4 -4 16 13 21 21 13 21 -2 0 -10 -8
-17 -17z"/>
<path d="M66629 35633 c-13 -16 -12 -17 4 -4 9 7 17 15 17 17 0 8 -8 3 -21
-13z"/>
<path d="M66589 35603 c-13 -16 -12 -17 4 -4 9 7 17 15 17 17 0 8 -8 3 -21
-13z"/>
<path d="M66444 35468 l-19 -23 23 19 c12 11 22 21 22 23 0 8 -8 2 -26 -19z"/>
<path d="M66364 35398 l-19 -23 23 19 c21 18 27 26 19 26 -2 0 -12 -10 -23
-22z"/>
<path d="M66279 35323 c-13 -16 -12 -17 4 -4 16 13 21 21 13 21 -2 0 -10 -8
-17 -17z"/>
<path d="M66214 35268 l-19 -23 23 19 c21 18 27 26 19 26 -2 0 -12 -10 -23
-22z"/>
<path d="M66110 35179 l-55 -51 58 47 c50 42 64 55 55 55 -2 0 -28 -23 -58
-51z"/>
<path d="M66004 35088 l-19 -23 23 19 c12 11 22 21 22 23 0 8 -8 2 -26 -19z"/>
<path d="M65944 35038 l-29 -33 33 29 c17 17 32 31 32 33 0 8 -8 1 -36 -29z"/>
<path d="M65879 34983 l-24 -28 28 24 c25 23 32 31 24 31 -2 0 -14 -12 -28
-27z"/>
<path d="M65824 34938 l-19 -23 23 19 c12 11 22 21 22 23 0 8 -8 2 -26 -19z"/>
<path d="M65769 34893 c-13 -16 -12 -17 4 -4 16 13 21 21 13 21 -2 0 -10 -8
-17 -17z"/>
<path d="M65709 34843 c-13 -16 -12 -17 4 -4 16 13 21 21 13 21 -2 0 -10 -8
-17 -17z"/>
<path d="M65654 34798 l-19 -23 23 19 c12 11 22 21 22 23 0 8 -8 2 -26 -19z"/>
<path d="M65599 34753 c-13 -16 -12 -17 4 -4 9 7 17 15 17 17 0 8 -8 3 -21
-13z"/>
<path d="M65549 34713 c-13 -16 -12 -17 4 -4 9 7 17 15 17 17 0 8 -8 3 -21
-13z"/>
<path d="M65449 34633 c-13 -16 -12 -17 4 -4 16 13 21 21 13 21 -2 0 -10 -8
-17 -17z"/>
<path d="M64920 34224 c-69 -52 -132 -102 -140 -111 -8 -9 49 32 128 91 119
89 156 120 140 115 -2 0 -59 -43 -128 -95z"/>
<path d="M64669 34033 c-13 -16 -12 -17 4 -4 16 13 21 21 13 21 -2 0 -10 -8
-17 -17z"/>
<path d="M64559 33953 c-13 -16 -12 -17 4 -4 16 13 21 21 13 21 -2 0 -10 -8
-17 -17z"/>
<path d="M64519 33923 c-13 -16 -12 -17 4 -4 16 13 21 21 13 21 -2 0 -10 -8
-17 -17z"/>
<path d="M64379 33823 c-13 -16 -12 -17 4 -4 16 13 21 21 13 21 -2 0 -10 -8
-17 -17z"/>
<path d="M63325 33110 c-3 -6 1 -7 9 -4 18 7 21 14 7 14 -6 0 -13 -4 -16 -10z"/>
<path d="M63194 33024 c-18 -14 -18 -15 4 -4 12 6 22 13 22 15 0 8 -5 6 -26
-11z"/>
<path d="M62824 32794 c-18 -14 -18 -15 4 -4 12 6 22 13 22 15 0 8 -5 6 -26
-11z"/>
<path d="M62624 32674 c-18 -14 -18 -15 4 -4 12 6 22 13 22 15 0 8 -5 6 -26
-11z"/>
<path d="M62524 32614 c-18 -14 -18 -15 4 -4 12 6 22 13 22 15 0 8 -5 6 -26
-11z"/>
<path d="M62045 32340 c-3 -6 1 -7 9 -4 18 7 21 14 7 14 -6 0 -13 -4 -16 -10z"/>
<path d="M61680 32140 c-9 -6 -10 -10 -3 -10 6 0 15 5 18 10 8 12 4 12 -15 0z"/>
<path d="M61298 31939 c-21 -11 -38 -22 -38 -24 0 -3 18 4 40 15 22 11 40 23
40 25 0 7 0 7 -42 -16z"/>
<path d="M60630 31605 c-14 -8 -20 -14 -15 -14 6 0 21 6 35 14 14 8 21 14 15
14 -5 0 -21 -6 -35 -14z"/>
<path d="M60580 31580 c-9 -6 -10 -10 -3 -10 6 0 15 5 18 10 8 12 4 12 -15 0z"/>
<path d="M60430 31510 c-8 -5 -10 -10 -5 -10 6 0 17 5 25 10 8 5 11 10 5 10
-5 0 -17 -5 -25 -10z"/>
<path d="M60300 31450 c-8 -5 -10 -10 -5 -10 6 0 17 5 25 10 8 5 11 10 5 10
-5 0 -17 -5 -25 -10z"/>
<path d="M59790 31220 c-8 -5 -10 -10 -5 -10 6 0 17 5 25 10 8 5 11 10 5 10
-5 0 -17 -5 -25 -10z"/>
<path d="M59200 30970 c-8 -5 -10 -10 -5 -10 6 0 17 5 25 10 8 5 11 10 5 10
-5 0 -17 -5 -25 -10z"/>
<path d="M58900 30850 c-8 -5 -10 -10 -5 -10 6 0 17 5 25 10 8 5 11 10 5 10
-5 0 -17 -5 -25 -10z"/>
<path d="M58690 30770 c-9 -6 -10 -10 -3 -10 6 0 15 5 18 10 8 12 4 12 -15 0z"/>
<path d="M58610 30740 c-8 -5 -10 -10 -5 -10 6 0 17 5 25 10 8 5 11 10 5 10
-5 0 -17 -5 -25 -10z"/>
<path d="M58530 30710 c-9 -6 -10 -10 -3 -10 6 0 15 5 18 10 8 12 4 12 -15 0z"/>
<path d="M57068 30213 c7 -3 16 -2 19 1 4 3 -2 6 -13 5 -11 0 -14 -3 -6 -6z"/>
<path d="M56635 30090 c-13 -6 -15 -9 -5 -9 8 0 22 4 30 9 18 12 2 12 -25 0z"/>
<path d="M56588 30073 c7 -3 16 -2 19 1 4 3 -2 6 -13 5 -11 0 -14 -3 -6 -6z"/>
<path d="M56298 29993 c7 -3 16 -2 19 1 4 3 -2 6 -13 5 -11 0 -14 -3 -6 -6z"/>
<path d="M55718 29843 c7 -3 16 -2 19 1 4 3 -2 6 -13 5 -11 0 -14 -3 -6 -6z"/>
</g>
</svg>
